<svg width="50" height="50" viewBox="0 0 50 50" fill="none" xmlns="http://www.w3.org/2000/svg">
<path d="M25 0C11.1937 0 0 11.1922 0 25C0 38.8063 11.1937 50 25 50C38.8078 50 50 38.8063 50 25C50 11.1922 38.8078 0 25 0ZM25 46.875C12.9188 46.875 3.12505 37.0812 3.12505 25C3.12505 12.9188 12.9188 3.12505 25 3.12505C37.0812 3.12505 46.875 12.9188 46.875 25C46.875 37.0812 37.0812 46.875 25 46.875Z" fill="#E94E0E"/>
<path d="M34.8203 27.1765L26.5781 35.3016V10.9375C26.5781 10.075 25.8718 9.37503 24.9999 9.37503C24.128 9.37503 23.4217 10.0751 23.4217 10.9375V35.3016L15.1795 27.1765C14.5639 26.5671 13.5639 26.5671 12.9483 27.1765C12.3327 27.7875 12.3327 28.7765 12.9483 29.3859L23.8842 40.1656C24.1764 40.4578 24.5874 40.625 24.9999 40.625C25.4108 40.625 25.8218 40.4563 26.1156 40.1672L37.0515 29.3875C37.6687 28.7765 37.6671 27.7875 37.0515 27.1781C36.436 26.5671 35.4359 26.5671 34.8203 27.1765Z" fill="url(#paint0_linear)"/>
<defs>
<linearGradient id="paint0_linear" x1="25.0002" y1="9.37503" x2="25.0002" y2="40.625" gradientUnits="userSpaceOnUse">
<stop offset="0.00510833" stop-color="#B71928"/>
<stop offset="0.00520833" stop-color="#E94E0E"/>
<stop offset="0.520833" stop-color="#E94E0E"/>
<stop offset="1" stop-color="#FAB921"/>
</linearGradient>
</defs>
</svg>
